<?xml version="1.0" encoding="UTF-8" standalone="no"?>
<!-- Created with matplotlib (http://matplotlib.org/) -->

<svg
   xmlns:dc="http://purl.org/dc/elements/1.1/"
   xmlns:cc="http://creativecommons.org/ns#"
   xmlns:rdf="http://www.w3.org/1999/02/22-rdf-syntax-ns#"
   xmlns:svg="http://www.w3.org/2000/svg"
   xmlns="http://www.w3.org/2000/svg"
   xmlns:sodipodi="http://sodipodi.sourceforge.net/DTD/sodipodi-0.dtd"
   xmlns:inkscape="http://www.inkscape.org/namespaces/inkscape"
   height="442pt"
   version="1.1"
   viewBox="0 0 586 442"
   width="586pt"
   id="svg2"
   inkscape:version="0.48.4 r"
   sodipodi:docname="sinusoid.svg">
  <metadata
     id="metadata29">
    <rdf:RDF>
      <cc:Work
         rdf:about="">
        <dc:format>image/svg+xml</dc:format>
        <dc:type
           rdf:resource="http://purl.org/dc/dcmitype/StillImage" />
      </cc:Work>
    </rdf:RDF>
  </metadata>
  <sodipodi:namedview
     pagecolor="#ffffff"
     bordercolor="#666666"
     borderopacity="1"
     objecttolerance="10"
     gridtolerance="10"
     guidetolerance="10"
     inkscape:pageopacity="0"
     inkscape:pageshadow="2"
     inkscape:window-width="1858"
     inkscape:window-height="1058"
     id="namedview27"
     showgrid="false"
     inkscape:zoom="1.5862692"
     inkscape:cx="366.75"
     inkscape:cy="275.75"
     inkscape:window-x="54"
     inkscape:window-y="-8"
     inkscape:window-maximized="1"
     inkscape:current-layer="svg2" />
  <defs
     id="defs4">
    <style
       type="text/css"
       id="style6">
*{stroke-linecap:butt;stroke-linejoin:round;}
  </style>
  </defs>
  <path
     inkscape:connector-curvature="0"
     id="path14"
     style="fill:none;stroke:#0000ff;stroke-linecap:square;stroke-linejoin:round"
     d="m 73.35,221.4 4.5477,-54.733 2.7286,-30.595 2.7286,-27.573 1.8191,-16.2139 1.8191,-14.1782 1.8191,-11.9183 0.9095,-5.0516 0.9096,-4.419 0.9095,-3.7691 0.9095,-3.1043 0.9096,-2.4273 0.9095,-1.7407 0.9096,-1.0471 0.9095,-0.3495 0.9095,0.3495 0.9096,1.0471 0.9095,1.7407 0.9096,2.4273 0.9093,3.1043 0.91,3.7691 0.909,4.419 1.819,10.7156 1.819,13.0741 1.82,15.2263 1.819,17.138 2.728,28.695 2.729,31.366 10.914,129.376 2.729,27.573 1.819,16.214 1.819,14.178 1.819,11.918 0.91,5.052 0.909,4.419 0.91,3.769 0.909,3.104 0.91,2.428 0.909,1.74 0.91,1.047 0.91,0.35 0.909,-0.35 0.91,-1.047 0.909,-1.74 0.91,-2.428 0.909,-3.104 0.91,-3.769 0.909,-4.419 1.819,-10.716 1.819,-13.074 1.82,-15.226 1.819,-17.138 2.728,-28.695 2.729,-31.366 10.914,-129.376 2.729,-27.573 1.819,-16.2139 1.819,-14.1782 1.819,-11.9183 0.91,-5.0516 0.909,-4.419 0.91,-3.7691 0.909,-3.1043 0.91,-2.4273 0.909,-1.7407 0.91,-1.0471 0.91,-0.3495 0.909,0.3495 0.91,1.0471 0.909,1.7407 0.91,2.4273 0.909,3.1043 0.91,3.7691 0.909,4.419 1.819,10.7156 1.819,13.0741 1.82,15.2263 1.819,17.138 2.728,28.695 2.729,31.366 10.914,129.376 2.729,27.573 1.819,16.214 1.819,14.178 1.819,11.918 0.91,5.052 0.909,4.419 0.91,3.769 0.909,3.104 0.91,2.428 0.909,1.74 0.91,1.047 0.91,0.35 0.909,-0.35 0.91,-1.047 0.909,-1.74 0.91,-2.428 0.909,-3.104 0.91,-3.769 0.909,-4.419 1.819,-10.716 1.819,-13.074 1.82,-15.226 1.819,-17.138 2.728,-28.695 2.729,-31.366 10.914,-129.376 2.729,-27.573 1.819,-16.2139 1.819,-14.1782 1.819,-11.9183 0.91,-5.0516 0.909,-4.419 0.91,-3.7691 0.909,-3.1043 0.91,-2.4273 0.909,-1.7407 0.91,-1.0471 0.91,-0.3495 0.909,0.3495 0.91,1.0471 0.909,1.7407 0.91,2.4273 0.909,3.1043 0.91,3.7691 0.909,4.419 1.819,10.7156 1.819,13.0741 1.82,15.2263 1.819,17.138 2.728,28.695 2.729,31.366 10.914,129.376 2.729,27.573 1.819,16.214 1.819,14.178 1.819,11.918 0.91,5.052 0.909,4.419 0.91,3.769 0.909,3.104 0.91,2.428 0.909,1.74 0.91,1.047 0.91,0.35 0.909,-0.35 0.91,-1.047 0.909,-1.74 0.91,-2.428 0.909,-3.104 0.91,-3.769 0.909,-4.419 1.819,-10.716 1.819,-13.074 1.82,-15.226 1.819,-17.138 2.728,-28.695 2.729,-31.366 10.914,-129.376 2.729,-27.573 1.819,-16.2139 1.819,-14.1782 1.819,-11.9183 0.91,-5.0516 0.909,-4.419 0.91,-3.7691 0.909,-3.1043 0.91,-2.4273 0.909,-1.7407 0.91,-1.0471 0.91,-0.3495 0.909,0.3495 0.91,1.0471 0.909,1.7407 0.91,2.4273 0.909,3.1043 0.91,3.7691 0.909,4.419 1.819,10.7156 1.819,13.0741 1.82,15.2263 1.819,17.138 2.728,28.695 2.729,31.366 10.914,129.376 2.729,27.573 1.819,16.214 1.819,14.178 1.819,11.918 0.91,5.052 0.909,4.419 0.91,3.769 0.909,3.104 0.91,2.428 0.909,1.74 0.91,1.047 0.91,0.35 0.909,-0.35 0.91,-1.047 0.909,-1.74 0.91,-2.428 0.909,-3.104 0.91,-3.769 0.909,-4.419 1.819,-10.716 1.819,-13.074 1.82,-15.226 1.819,-17.138 2.728,-28.695 2.729,-31.366 10.914,-129.376 2.729,-27.573 1.819,-16.2139 1.819,-14.1782 1.819,-11.9183 0.91,-5.0516 0.909,-4.419 0.91,-3.7691 0.909,-3.1043 0.91,-2.4273 0.909,-1.7407 0.91,-1.0471 0.91,-0.3495 0.909,0.3495 0.91,1.0471 0.909,1.7407 0.91,2.4273 0.909,3.1043 0.91,3.7691 0.909,4.419 1.819,10.7156 1.819,13.0741 1.82,15.2263 1.819,17.138 2.728,28.695 2.729,31.366 10.914,129.376 2.729,27.573 1.819,16.214 1.819,14.178 1.819,11.918 0.91,5.052 0.909,4.419 0.91,3.769 0.909,3.104 0.91,2.428 0.909,1.74 0.91,1.047 0.91,0.35 0.909,-0.35 0.91,-1.047 0.909,-1.74 0.91,-2.428 0.909,-3.104 0.91,-3.769 0.909,-4.419 1.819,-10.716 1.819,-13.074 1.82,-15.226 1.819,-17.138 2.728,-28.695 2.729,-31.366 2.728,-32.927 0,0"
     clip-path="url(#p9061672a36)" />
  <path
     inkscape:connector-curvature="0"
     id="path17"
     style="fill:none;stroke:#008000;stroke-linecap:square;stroke-linejoin:round"
     d="m 73.35,44.28 0.9095,0.3495 0.9096,1.0471 0.9095,1.7407 0.9096,2.4273 0.9095,3.1043 0.9095,3.7691 0.9096,4.419 1.8191,10.7156 1.819,13.0741 1.8191,15.2263 1.8191,17.138 2.7286,28.695 2.7286,31.366 10.9147,129.376 2.728,27.573 1.82,16.214 1.819,14.178 1.819,11.918 0.909,5.052 0.91,4.419 0.909,3.769 0.91,3.104 0.909,2.428 0.91,1.74 0.909,1.047 0.91,0.35 0.91,-0.35 0.909,-1.047 0.91,-1.74 0.909,-2.428 0.91,-3.104 0.909,-3.769 0.91,-4.419 1.819,-10.716 1.819,-13.074 1.819,-15.226 1.819,-17.138 2.729,-28.695 2.728,-31.366 10.915,-129.376 2.728,-27.573 1.82,-16.2139 1.819,-14.1782 1.819,-11.9183 0.909,-5.0516 0.91,-4.419 0.909,-3.7691 0.91,-3.1043 0.909,-2.4273 0.91,-1.7407 0.909,-1.0471 0.91,-0.3495 0.91,0.3495 0.909,1.0471 0.91,1.7407 0.909,2.4273 0.91,3.1043 0.909,3.7691 0.91,4.419 1.819,10.7156 1.819,13.0741 1.819,15.2263 1.819,17.138 2.729,28.695 2.728,31.366 10.915,129.376 2.728,27.573 1.82,16.214 1.819,14.178 1.819,11.918 0.909,5.052 0.91,4.419 0.909,3.769 0.91,3.104 0.909,2.428 0.91,1.74 0.909,1.047 0.91,0.35 0.91,-0.35 0.909,-1.047 0.91,-1.74 0.909,-2.428 0.91,-3.104 0.909,-3.769 0.91,-4.419 1.819,-10.716 1.819,-13.074 1.819,-15.226 1.819,-17.138 2.729,-28.695 2.728,-31.366 10.915,-129.376 2.728,-27.573 1.82,-16.2139 1.819,-14.1782 1.819,-11.9183 0.909,-5.0516 0.91,-4.419 0.909,-3.7691 0.91,-3.1043 0.909,-2.4273 0.91,-1.7407 0.909,-1.0471 0.91,-0.3495 0.91,0.3495 0.909,1.0471 0.91,1.7407 0.909,2.4273 0.91,3.1043 0.909,3.7691 0.91,4.419 1.819,10.7156 1.819,13.0741 1.819,15.2263 1.819,17.138 2.729,28.695 2.728,31.366 10.915,129.376 2.728,27.573 1.82,16.214 1.819,14.178 1.819,11.918 0.909,5.052 0.91,4.419 0.909,3.769 0.91,3.104 0.909,2.428 0.91,1.74 0.909,1.047 0.91,0.35 0.91,-0.35 0.909,-1.047 0.91,-1.74 0.909,-2.428 0.91,-3.104 0.909,-3.769 0.91,-4.419 1.819,-10.716 1.819,-13.074 1.819,-15.226 1.819,-17.138 2.729,-28.695 2.728,-31.366 10.915,-129.376 2.728,-27.573 1.82,-16.2139 1.819,-14.1782 1.819,-11.9183 0.909,-5.0516 0.91,-4.419 0.909,-3.7691 0.91,-3.1043 0.909,-2.4273 0.91,-1.7407 0.909,-1.0471 0.91,-0.3495 0.91,0.3495 0.909,1.0471 0.91,1.7407 0.909,2.4273 0.91,3.1043 0.909,3.7691 0.91,4.419 1.819,10.7156 1.819,13.0741 1.819,15.2263 1.819,17.138 2.729,28.695 2.728,31.366 10.915,129.376 2.728,27.573 1.82,16.214 1.819,14.178 1.819,11.918 0.909,5.052 0.91,4.419 0.909,3.769 0.91,3.104 0.909,2.428 0.91,1.74 0.909,1.047 0.91,0.35 0.91,-0.35 0.909,-1.047 0.91,-1.74 0.909,-2.428 0.91,-3.104 0.909,-3.769 0.91,-4.419 1.819,-10.716 1.819,-13.074 1.819,-15.226 1.819,-17.138 2.729,-28.695 2.728,-31.366 10.915,-129.376 2.728,-27.573 1.82,-16.2139 1.819,-14.1782 1.819,-11.9183 0.909,-5.0516 0.91,-4.419 0.909,-3.7691 0.91,-3.1043 0.909,-2.4273 0.91,-1.7407 0.909,-1.0471 0.91,-0.3495 0.91,0.3495 0.909,1.0471 0.91,1.7407 0.909,2.4273 0.91,3.1043 0.909,3.7691 0.91,4.419 1.819,10.7156 1.819,13.0741 1.819,15.2263 1.819,17.138 2.729,28.695 2.728,31.366 10.915,129.376 2.728,27.573 1.82,16.214 1.819,14.178 1.819,11.918 0.909,5.052 0.91,4.419 0.909,3.769 0.91,3.104 0.909,2.428 0.91,1.74 0.909,1.047 0.91,0.35 0.91,-0.35 0.909,-1.047 0.91,-1.74 0.909,-2.428 0.91,-3.104 0.909,-3.769 0.91,-4.419 1.819,-10.716 1.819,-13.074 1.819,-15.226 1.819,-17.138 2.729,-28.695 2.728,-31.366 10.915,-129.376 2.728,-27.573 1.82,-16.2139 1.819,-14.1782 1.819,-11.9183 0.909,-5.0516 0.91,-4.419 0.909,-3.7691 0.91,-3.1043 0.909,-2.4273 0.91,-1.7407 0.909,-1.0471 0,0"
     clip-path="url(#p9061672a36)" />
  <path
     inkscape:connector-curvature="0"
     id="path20"
     style="fill:none;stroke:#ff0000;stroke-linecap:square;stroke-linejoin:round"
     d="m 73.35,221.4 4.5477,-54.733 2.7286,-30.595 2.7286,-27.573 1.8191,-16.2139 1.8191,-14.1782 1.8191,-11.9183 0.9095,-5.0516 0.9096,-4.419 0.9095,-3.7691 0.9095,-3.1043 0.9096,-2.4273 0.9095,-1.7407 0.9096,-1.0471 0.9095,-0.3495 0.9095,0.3495 0.9096,1.0471 0.9095,1.7407 0.9096,2.4273 0.9093,3.1043 0.91,3.7691 0.909,4.419 1.819,10.7156 1.819,13.0741 1.82,15.2263 1.819,17.138 2.728,28.695 2.729,31.366 10.914,129.376 2.729,27.573 1.819,16.214 1.819,14.178 1.819,11.918 0.91,5.052 0.909,4.419 0.91,3.769 0.909,3.104 0.91,2.428 0.909,1.74 0.91,1.047 0.91,0.35 0.909,-0.35 0.91,-1.047 0.909,-1.74 0.91,-2.428 0.909,-3.104 0.91,-3.769 0.909,-4.419 1.819,-10.716 1.819,-13.074 1.82,-15.226 1.819,-17.138 2.728,-28.695 2.729,-31.366 10.914,-129.376 2.729,-27.573 1.819,-16.2139 1.819,-14.1782 1.819,-11.9183 0.91,-5.0516 0.909,-4.419 0.91,-3.7691 0.909,-3.1043 0.91,-2.4273 0.909,-1.7407 0.91,-1.0471 0.91,-0.3495 0.909,0.3495 0.91,1.0471 0.909,1.7407 0.91,2.4273 0.909,3.1043 0.91,3.7691 0.909,4.419 1.819,10.7156 1.819,13.0741 1.82,15.2263 1.819,17.138 2.728,28.695 2.729,31.366 10.914,129.376 2.729,27.573 1.819,16.214 1.819,14.178 1.819,11.918 0.91,5.052 0.909,4.419 0.91,3.769 0.909,3.104 0.91,2.428 0.909,1.74 0.91,1.047 0.91,0.35 0.909,-0.35 0.91,-1.047 0.909,-1.74 0.91,-2.428 0.909,-3.104 0.91,-3.769 0.909,-4.419 1.819,-10.716 1.819,-13.074 1.82,-15.226 1.819,-17.138 2.728,-28.695 2.729,-31.366 10.914,-129.376 2.729,-27.573 1.819,-16.2139 1.819,-14.1782 1.819,-11.9183 0.91,-5.0516 0.909,-4.419 0.91,-3.7691 0.909,-3.1043 0.91,-2.4273 0.909,-1.7407 0.91,-1.0471 0.91,-0.3495 0.909,0.3495 0.91,1.0471 0.909,1.7407 0.91,2.4273 0.909,3.1043 0.91,3.7691 0.909,4.419 1.819,10.7156 1.819,13.0741 1.82,15.2263 1.819,17.138 2.728,28.695 2.729,31.366 10.914,129.376 2.729,27.573 1.819,16.214 1.819,14.178 1.819,11.918 0.91,5.052 0.909,4.419 0.91,3.769 0.909,3.104 0.91,2.428 0.909,1.74 0.91,1.047 0.91,0.35 0.909,-0.35 0.91,-1.047 0.909,-1.74 0.91,-2.428 0.909,-3.104 0.91,-3.769 0.909,-4.419 1.819,-10.716 1.819,-13.074 1.82,-15.226 1.819,-17.138 2.728,-28.695 2.729,-31.366 10.914,-129.376 2.729,-27.573 1.819,-16.2139 1.819,-14.1782 1.819,-11.9183 0.91,-5.0516 0.909,-4.419 0.91,-3.7691 0.909,-3.1043 0.91,-2.4273 0.909,-1.7407 0.91,-1.0471 0.91,-0.3495 0.909,0.3495 0.91,1.0471 0.909,1.7407 0.91,2.4273 0.909,3.1043 0.91,3.7691 0.909,4.419 1.819,10.7156 1.819,13.0741 1.82,15.2263 1.819,17.138 2.728,28.695 2.729,31.366 10.914,129.376 2.729,27.573 1.819,16.214 1.819,14.178 1.819,11.918 0.91,5.052 0.909,4.419 0.91,3.769 0.909,3.104 0.91,2.428 0.909,1.74 0.91,1.047 0.91,0.35 0.909,-0.35 0.91,-1.047 0.909,-1.74 0.91,-2.428 0.909,-3.104 0.91,-3.769 0.909,-4.419 1.819,-10.716 1.819,-13.074 1.82,-15.226 1.819,-17.138 2.728,-28.695 2.729,-31.366 10.914,-129.376 2.729,-27.573 1.819,-16.2139 1.819,-14.1782 1.819,-11.9183 0.91,-5.0516 0.909,-4.419 0.91,-3.7691 0.909,-3.1043 0.91,-2.4273 0.909,-1.7407 0.91,-1.0471 0.91,-0.3495 0.909,0.3495 0.91,1.0471 0.909,1.7407 0.91,2.4273 0.909,3.1043 0.91,3.7691 0.909,4.419 1.819,10.7156 1.819,13.0741 1.82,15.2263 1.819,17.138 2.728,28.695 2.729,31.366 10.914,129.376 2.729,27.573 1.819,16.214 1.819,14.178 1.819,11.918 0.91,5.052 0.909,4.419 0.91,3.769 0.909,3.104 0.91,2.428 0.909,1.74 0.91,1.047 0.91,0.35 0.909,-0.35 0.91,-1.047 0.909,-1.74 0.91,-2.428 0.909,-3.104 0.91,-3.769 0.909,-4.419 1.819,-10.716 1.819,-13.074 1.82,-15.226 1.819,-17.138 2.728,-28.695 2.729,-31.366 2.728,-32.927 0,0"
     clip-path="url(#p9061672a36)" />
  <defs
     id="defs22">
    <clipPath
       id="p9061672a36">
      <rect
         height="354.24"
         width="454.77"
         x="73.35"
         y="44.28"
         id="rect25" />
    </clipPath>
  </defs>
</svg>
